<mxfile host="app.diagrams.net" modified="2023-05-05T07:28:35.493Z" agent="Mozilla/5.0 (Windows NT 10.0; Win64; x64) AppleWebKit/537.36 (KHTML, like Gecko) Chrome/112.0.0.0 Safari/537.36 Edg/112.0.1722.64" etag="7L4zMOO8dvUqcwKS4zq1" version="21.2.7" type="device">
  <diagram name="Page-1" id="ZKfmSK1DI8VXTmZOymLS">
    <mxGraphModel dx="567" dy="364" grid="1" gridSize="10" guides="1" tooltips="1" connect="1" arrows="1" fold="1" page="1" pageScale="1" pageWidth="850" pageHeight="1100" math="0" shadow="0">
      <root>
        <mxCell id="0" />
        <mxCell id="1" parent="0" />
        <mxCell id="wMRlS1T20MpH34R8xzaE-1" value="Client(mqtt.Client&lt;span style=&quot;background-color: initial;&quot;&gt;)&lt;/span&gt;" style="swimlane;whiteSpace=wrap;html=1;" vertex="1" parent="1">
          <mxGeometry x="250" y="30" width="200" height="320" as="geometry" />
        </mxCell>
        <mxCell id="wMRlS1T20MpH34R8xzaE-2" value="+&amp;nbsp;__check:&lt;span style=&quot;background-color: initial;&quot;&gt;&amp;nbsp;&lt;/span&gt;&lt;br&gt;+&amp;nbsp;__logger:&lt;br&gt;+&amp;nbsp;__msg:" style="text;html=1;strokeColor=none;fillColor=none;align=left;verticalAlign=top;whiteSpace=wrap;rounded=0;horizontal=1;" vertex="1" parent="wMRlS1T20MpH34R8xzaE-1">
          <mxGeometry y="20" width="200" height="80" as="geometry" />
        </mxCell>
        <mxCell id="wMRlS1T20MpH34R8xzaE-3" value="+ __init__(self):&lt;br&gt;+ on_connect(self, client, userdata, flags, rc):&lt;br&gt;+ on_connect_fail(self, client, userdata):&lt;br&gt;+ on_disconnect(self, client, userdata, rc):&lt;br&gt;+ on_message(self, client, userdata, message):&lt;br&gt;+ on_publish(self, client, userdata, mid):&lt;br&gt;+ on_subscribe(self, client, userdata, mid, granted_qos):&lt;br&gt;+ msg_arrive(self):" style="text;html=1;strokeColor=none;fillColor=none;align=left;verticalAlign=top;whiteSpace=wrap;rounded=0;horizontal=1;" vertex="1" parent="wMRlS1T20MpH34R8xzaE-1">
          <mxGeometry y="100" width="200" height="220" as="geometry" />
        </mxCell>
        <mxCell id="wMRlS1T20MpH34R8xzaE-4" value="" style="endArrow=none;html=1;rounded=0;exitX=0;exitY=1;exitDx=0;exitDy=0;entryX=1;entryY=1;entryDx=0;entryDy=0;" edge="1" parent="wMRlS1T20MpH34R8xzaE-1" source="wMRlS1T20MpH34R8xzaE-2" target="wMRlS1T20MpH34R8xzaE-2">
          <mxGeometry width="50" height="50" relative="1" as="geometry">
            <mxPoint x="110" y="140" as="sourcePoint" />
            <mxPoint x="160" y="90" as="targetPoint" />
            <Array as="points" />
          </mxGeometry>
        </mxCell>
      </root>
    </mxGraphModel>
  </diagram>
</mxfile>
